<mxfile host="65bd71144e">
    <diagram id="5MVaIhlBFmrWEY1pdW7e" name="Page-1">
        <mxGraphModel dx="1382" dy="917" grid="1" gridSize="10" guides="1" tooltips="1" connect="1" arrows="1" fold="1" page="1" pageScale="1" pageWidth="1200" pageHeight="1920" background="#FFFFFF" math="0" shadow="0">
            <root>
                <mxCell id="0"/>
                <mxCell id="1" parent="0"/>
                <mxCell id="2" value="&lt;h1&gt;Members&lt;/h1&gt;&lt;p&gt;Members,which define the who part of who can do what on which resource&lt;/p&gt;" style="text;html=1;strokeColor=none;fillColor=none;spacing=5;spacingTop=-20;whiteSpace=wrap;overflow=hidden;rounded=0;" vertex="1" parent="1">
                    <mxGeometry x="70" y="390.5" width="190" height="120" as="geometry"/>
                </mxCell>
                <mxCell id="11" value="Policy" style="swimlane;startSize=20;horizontal=0;childLayout=treeLayout;horizontalTree=1;resizable=0;containerType=tree;rounded=1;fontColor=#FFFFFF;strokeColor=#000000;fillColor=#000000;" vertex="1" parent="1">
                    <mxGeometry x="300" y="50" width="1230" height="959" as="geometry"/>
                </mxCell>
                <mxCell id="12" value="Member Identity" style="whiteSpace=wrap;html=1;rounded=1;fontColor=#FFFFFF;strokeColor=default;fillColor=#003366;" vertex="1" parent="11">
                    <mxGeometry x="40" y="388.96992" width="100" height="40" as="geometry"/>
                </mxCell>
                <mxCell id="13" value="Google Account" style="whiteSpace=wrap;html=1;rounded=1;fontColor=#FFFFFF;strokeColor=default;fillColor=#003366;" vertex="1" parent="11">
                    <mxGeometry x="190" y="20" width="110" height="40" as="geometry"/>
                </mxCell>
                <mxCell id="14" value="" style="edgeStyle=elbowEdgeStyle;elbow=horizontal;html=1;rounded=0;fontColor=#FFFFFF;" edge="1" parent="11" source="12" target="13">
                    <mxGeometry relative="1" as="geometry"/>
                </mxCell>
                <mxCell id="15" value="Service Account" style="whiteSpace=wrap;html=1;rounded=1;fontColor=#FFFFFF;strokeColor=default;fillColor=#003366;" vertex="1" parent="11">
                    <mxGeometry x="190" y="184.48496" width="110" height="40" as="geometry"/>
                </mxCell>
                <mxCell id="16" value="" style="edgeStyle=elbowEdgeStyle;elbow=horizontal;html=1;rounded=0;fontColor=#FFFFFF;" edge="1" parent="11" source="12" target="15">
                    <mxGeometry relative="1" as="geometry"/>
                </mxCell>
                <mxCell id="17" value="" style="edgeStyle=elbowEdgeStyle;elbow=horizontal;html=1;rounded=0;fontColor=#FFFFFF;" edge="1" target="18" source="12" parent="11">
                    <mxGeometry relative="1" as="geometry">
                        <mxPoint x="440" y="-1446.1200799999997" as="sourcePoint"/>
                    </mxGeometry>
                </mxCell>
                <mxCell id="18" value="Google Group" style="whiteSpace=wrap;html=1;rounded=1;fontColor=#FFFFFF;strokeColor=default;fillColor=#003366;" vertex="1" parent="11">
                    <mxGeometry x="190" y="472.93984" width="110" height="40" as="geometry"/>
                </mxCell>
                <mxCell id="19" value="" style="edgeStyle=elbowEdgeStyle;elbow=horizontal;html=1;rounded=0;fontColor=#FFFFFF;" edge="1" target="20" source="12" parent="11">
                    <mxGeometry relative="1" as="geometry">
                        <mxPoint x="440" y="-1366.1200799999997" as="sourcePoint"/>
                    </mxGeometry>
                </mxCell>
                <mxCell id="20" value="Cloud identity Google Workspace Domain" style="whiteSpace=wrap;html=1;rounded=1;fontColor=#FFFFFF;strokeColor=default;fillColor=#003366;" vertex="1" parent="11">
                    <mxGeometry x="190" y="738.93984" width="110" height="59" as="geometry"/>
                </mxCell>
                <mxCell id="23" value="" style="edgeStyle=elbowEdgeStyle;elbow=horizontal;html=1;rounded=0;fontColor=#FFFFFF;" edge="1" target="24" source="13" parent="11">
                    <mxGeometry relative="1" as="geometry">
                        <mxPoint x="440" y="-1086.1200799999997" as="sourcePoint"/>
                    </mxGeometry>
                </mxCell>
                <mxCell id="24" value="EX: Userid@gmail.com" style="whiteSpace=wrap;html=1;rounded=1;fontColor=#FFFFFF;strokeColor=default;fillColor=#999999;" vertex="1" parent="11">
                    <mxGeometry x="350" y="20" width="170" height="40" as="geometry"/>
                </mxCell>
                <mxCell id="27" value="" style="edgeStyle=elbowEdgeStyle;elbow=horizontal;html=1;rounded=0;fontColor=#FFFFFF;" edge="1" target="28" source="15" parent="11">
                    <mxGeometry relative="1" as="geometry">
                        <mxPoint x="440" y="-870.1200799999999" as="sourcePoint"/>
                    </mxGeometry>
                </mxCell>
                <mxCell id="28" value="Ex : 1234567@cloudservices&lt;br&gt;.gserviceaccount.com" style="whiteSpace=wrap;html=1;rounded=1;fontColor=#FFFFFF;strokeColor=default;fillColor=#999999;" vertex="1" parent="11">
                    <mxGeometry x="350" y="100" width="170" height="40" as="geometry"/>
                </mxCell>
                <mxCell id="29" value="" style="edgeStyle=elbowEdgeStyle;elbow=horizontal;html=1;rounded=0;fontColor=#FFFFFF;" edge="1" target="30" source="15" parent="11">
                    <mxGeometry relative="1" as="geometry">
                        <mxPoint x="600" y="-950.1200799999999" as="sourcePoint"/>
                    </mxGeometry>
                </mxCell>
                <mxCell id="30" value="An account that belongs to your application instead of an individual end user" style="whiteSpace=wrap;html=1;rounded=1;fontColor=#FFFFFF;strokeColor=default;fillColor=#003366;" vertex="1" parent="11">
                    <mxGeometry x="350" y="258.96992" width="170" height="50" as="geometry"/>
                </mxCell>
                <mxCell id="34" value="" style="edgeStyle=elbowEdgeStyle;elbow=horizontal;html=1;rounded=0;fontColor=#FFFFFF;" edge="1" target="35" source="18" parent="11">
                    <mxGeometry relative="1" as="geometry">
                        <mxPoint x="440" y="-674.1200799999999" as="sourcePoint"/>
                    </mxGeometry>
                </mxCell>
                <mxCell id="35" value="Ex: groupname@&lt;br&gt;googlegroups.com" style="whiteSpace=wrap;html=1;rounded=1;fontColor=#FFFFFF;strokeColor=default;fillColor=#999999;" vertex="1" parent="11">
                    <mxGeometry x="350" y="427.93984" width="170" height="40" as="geometry"/>
                </mxCell>
                <mxCell id="36" value="" style="edgeStyle=elbowEdgeStyle;elbow=horizontal;html=1;rounded=0;fontColor=#FFFFFF;" edge="1" target="37" source="18" parent="11">
                    <mxGeometry relative="1" as="geometry">
                        <mxPoint x="600" y="-629.1200799999999" as="sourcePoint"/>
                    </mxGeometry>
                </mxCell>
                <mxCell id="37" value="A named collection of Google accounts and service accounts" style="whiteSpace=wrap;html=1;rounded=1;fontColor=#FFFFFF;strokeColor=default;fillColor=#003366;" vertex="1" parent="11">
                    <mxGeometry x="350" y="507.93984" width="170" height="50" as="geometry"/>
                </mxCell>
                <mxCell id="38" value="" style="edgeStyle=elbowEdgeStyle;elbow=horizontal;html=1;rounded=0;fontColor=#FFFFFF;" edge="1" target="39" source="20" parent="11">
                    <mxGeometry relative="1" as="geometry">
                        <mxPoint x="440" y="-433.12008" as="sourcePoint"/>
                    </mxGeometry>
                </mxCell>
                <mxCell id="39" value="Ex : alias@example.com" style="whiteSpace=wrap;html=1;rounded=1;fontColor=#FFFFFF;strokeColor=default;fillColor=#999999;" vertex="1" parent="11">
                    <mxGeometry x="350" y="597.93984" width="170" height="59" as="geometry"/>
                </mxCell>
                <mxCell id="41" value="" style="edgeStyle=elbowEdgeStyle;elbow=horizontal;html=1;rounded=0;fontColor=#FFFFFF;" edge="1" target="42" source="20" parent="11">
                    <mxGeometry relative="1" as="geometry">
                        <mxPoint x="600" y="-223.12007999999997" as="sourcePoint"/>
                    </mxGeometry>
                </mxCell>
                <mxCell id="42" value="&lt;span style=&quot;background-color: rgb(0 , 51 , 102)&quot;&gt;&lt;div class=&quot;rc-Phrase css-ugczj4&quot; style=&quot;box-sizing: border-box ; cursor: pointer ; opacity: 1 ; display: inline ; font-family: &amp;#34;opensans&amp;#34; , &amp;#34;arial&amp;#34; , sans-serif&quot;&gt;&lt;span class=&quot;cds-137 css-1j071wf cds-139&quot; style=&quot;box-sizing: border-box ; margin: 0px ; font-family: &amp;#34;source sans pro&amp;#34; , &amp;#34;arial&amp;#34; , sans-serif ; line-height: 1.5rem ; letter-spacing: 0px&quot;&gt;&amp;nbsp;&lt;/span&gt;&lt;/div&gt;&lt;div tabindex=&quot;0&quot; class=&quot;rc-Phrase css-ugczj4&quot; style=&quot;box-sizing: border-box ; cursor: pointer ; opacity: 1 ; display: inline ; font-family: &amp;#34;opensans&amp;#34; , &amp;#34;arial&amp;#34; , sans-serif&quot;&gt;&lt;span class=&quot;cds-137 css-1j071wf cds-139&quot; style=&quot;box-sizing: border-box ; margin: 0px ; font-family: &amp;#34;source sans pro&amp;#34; , &amp;#34;arial&amp;#34; , sans-serif ; line-height: 1.5rem ; letter-spacing: 0px&quot;&gt;Workspace domains represent your organization's&amp;nbsp;&lt;/span&gt;&lt;/div&gt;&lt;div tabindex=&quot;0&quot; class=&quot;rc-Phrase css-ugczj4&quot; style=&quot;box-sizing: border-box ; cursor: text ; opacity: 1 ; display: inline ; font-family: &amp;#34;opensans&amp;#34; , &amp;#34;arial&amp;#34; , sans-serif&quot;&gt;&lt;span class=&quot;cds-137 css-1j071wf cds-139&quot; style=&quot;box-sizing: border-box ; margin: 0px ; font-family: &amp;#34;source sans pro&amp;#34; , &amp;#34;arial&amp;#34; , sans-serif ; line-height: 1.5rem ; letter-spacing: 0px&quot;&gt;Internet domain name&lt;/span&gt;&lt;/div&gt;&lt;/span&gt;" style="whiteSpace=wrap;html=1;rounded=1;fontColor=#FFFFFF;strokeColor=default;fillColor=#003366;" vertex="1" parent="11">
                    <mxGeometry x="350" y="696.93984" width="180" height="101" as="geometry"/>
                </mxCell>
                <mxCell id="43" value="" style="edgeStyle=elbowEdgeStyle;elbow=horizontal;html=1;rounded=0;fontColor=#FFFFFF;" edge="1" target="44" source="20" parent="11">
                    <mxGeometry relative="1" as="geometry">
                        <mxPoint x="600" y="65.62992000000003" as="sourcePoint"/>
                    </mxGeometry>
                </mxCell>
                <mxCell id="44" value="&lt;span style=&quot;background-color: rgb(0 , 51 , 102)&quot;&gt;&lt;div class=&quot;rc-Phrase css-ugczj4&quot; style=&quot;box-sizing: border-box ; cursor: pointer ; opacity: 1 ; display: inline ; font-family: &amp;#34;opensans&amp;#34; , &amp;#34;arial&amp;#34; , sans-serif&quot;&gt;&lt;span class=&quot;cds-137 css-1j071wf cds-139&quot; style=&quot;box-sizing: border-box ; margin: 0px ; font-family: &amp;#34;source sans pro&amp;#34; , &amp;#34;arial&amp;#34; , sans-serif ; line-height: 1.5rem ; letter-spacing: 0px&quot;&gt;Cloud Identity lets you manage users and groups&amp;nbsp;&lt;/span&gt;&lt;/div&gt;&lt;div tabindex=&quot;0&quot; class=&quot;rc-Phrase active css-ugczj4&quot; style=&quot;box-sizing: border-box ; cursor: pointer ; opacity: 1 ; display: inline ; outline: rgba(42 , 181 , 115 , 0.5) solid 1px ; font-family: &amp;#34;opensans&amp;#34; , &amp;#34;arial&amp;#34; , sans-serif&quot;&gt;&lt;span class=&quot;cds-137 css-1j071wf cds-139&quot; style=&quot;box-sizing: border-box ; margin: 0px ; font-family: &amp;#34;source sans pro&amp;#34; , &amp;#34;arial&amp;#34; , sans-serif ; line-height: 1.5rem ; letter-spacing: 0px&quot;&gt;using Google Admin console&lt;/span&gt;&lt;/div&gt;&lt;/span&gt;" style="whiteSpace=wrap;html=1;rounded=1;fontColor=#FFFFFF;strokeColor=default;fillColor=#003366;" vertex="1" parent="11">
                    <mxGeometry x="350" y="837.93984" width="180" height="101" as="geometry"/>
                </mxCell>
                <mxCell id="45" value="" style="edgeStyle=elbowEdgeStyle;elbow=horizontal;html=1;rounded=0;fontColor=#FFFFFF;" edge="1" target="46" source="30" parent="11">
                    <mxGeometry relative="1" as="geometry">
                        <mxPoint x="600" y="-63.87007999999997" as="sourcePoint"/>
                    </mxGeometry>
                </mxCell>
                <mxCell id="46" value="This provides an identity for carrying out server-to-server interactions in a project without supplying user credentials" style="whiteSpace=wrap;html=1;rounded=1;fontColor=#FFFFFF;strokeColor=default;fillColor=#009900;" vertex="1" parent="11">
                    <mxGeometry x="570" y="160.25752" width="180" height="89.8" as="geometry"/>
                </mxCell>
                <mxCell id="47" value="" style="edgeStyle=elbowEdgeStyle;elbow=horizontal;html=1;rounded=0;fontColor=#FFFFFF;" edge="1" target="48" source="30" parent="11">
                    <mxGeometry relative="1" as="geometry">
                        <mxPoint x="820" y="-23.870079999999916" as="sourcePoint"/>
                    </mxGeometry>
                </mxCell>
                <mxCell id="48" value="Types" style="whiteSpace=wrap;html=1;rounded=1;fontColor=#FFFFFF;strokeColor=default;fillColor=#B3B3B3;" vertex="1" parent="11">
                    <mxGeometry x="570" y="370.52232000000004" width="180" height="37.16" as="geometry"/>
                </mxCell>
                <mxCell id="49" value="" style="edgeStyle=elbowEdgeStyle;elbow=horizontal;html=1;rounded=0;fontColor=#FFFFFF;" edge="1" target="50" source="48" parent="11">
                    <mxGeometry relative="1" as="geometry">
                        <mxPoint x="820" y="333.9699200000001" as="sourcePoint"/>
                    </mxGeometry>
                </mxCell>
                <mxCell id="50" value="User-Created(Custom)" style="whiteSpace=wrap;html=1;rounded=1;fontColor=#FFFFFF;strokeColor=default;fillColor=#B3B3B3;" vertex="1" parent="11">
                    <mxGeometry x="800" y="269.94132" width="180" height="37.16" as="geometry"/>
                </mxCell>
                <mxCell id="53" value="" style="edgeStyle=elbowEdgeStyle;elbow=horizontal;html=1;rounded=0;fontColor=#FFFFFF;" edge="1" target="54" source="48" parent="11">
                    <mxGeometry relative="1" as="geometry">
                        <mxPoint x="1050" y="414.3019199999998" as="sourcePoint"/>
                    </mxGeometry>
                </mxCell>
                <mxCell id="54" value="Built-in" style="whiteSpace=wrap;html=1;rounded=1;fontColor=#FFFFFF;strokeColor=default;fillColor=#B3B3B3;" vertex="1" parent="11">
                    <mxGeometry x="800" y="350.77332" width="180" height="37.16" as="geometry"/>
                </mxCell>
                <mxCell id="55" value="" style="edgeStyle=elbowEdgeStyle;elbow=horizontal;html=1;rounded=0;fontColor=#FFFFFF;" edge="1" target="56" source="48" parent="11">
                    <mxGeometry relative="1" as="geometry">
                        <mxPoint x="1050" y="414.30192000000005" as="sourcePoint"/>
                    </mxGeometry>
                </mxCell>
                <mxCell id="56" value="Google APIs service account" style="whiteSpace=wrap;html=1;rounded=1;fontColor=#FFFFFF;strokeColor=default;fillColor=#B3B3B3;" vertex="1" parent="11">
                    <mxGeometry x="800" y="471.10332" width="180" height="37.16" as="geometry"/>
                </mxCell>
                <mxCell id="57" value="" style="edgeStyle=elbowEdgeStyle;elbow=horizontal;html=1;rounded=0;fontColor=#FFFFFF;" edge="1" target="58" source="54" parent="11">
                    <mxGeometry relative="1" as="geometry">
                        <mxPoint x="1050" y="429.73391999999996" as="sourcePoint"/>
                    </mxGeometry>
                </mxCell>
                <mxCell id="58" value="Compute Engine and App Engine default service accounts" style="whiteSpace=wrap;html=1;rounded=1;fontColor=#FFFFFF;strokeColor=default;fillColor=#000000;" vertex="1" parent="11">
                    <mxGeometry x="1030" y="346.18332" width="180" height="46.34" as="geometry"/>
                </mxCell>
                <mxCell id="59" value="" style="edgeStyle=elbowEdgeStyle;elbow=horizontal;html=1;rounded=0;fontColor=#FFFFFF;" edge="1" target="60" source="56" parent="11">
                    <mxGeometry relative="1" as="geometry">
                        <mxPoint x="1050" y="431.20271999999994" as="sourcePoint"/>
                    </mxGeometry>
                </mxCell>
                <mxCell id="60" value="Run internal Google processes on your behalf" style="whiteSpace=wrap;html=1;rounded=1;fontColor=#FFFFFF;strokeColor=default;fillColor=#009900;" vertex="1" parent="11">
                    <mxGeometry x="1030" y="432.52332" width="180" height="37.16" as="geometry"/>
                </mxCell>
                <mxCell id="61" value="" style="edgeStyle=elbowEdgeStyle;elbow=horizontal;html=1;rounded=0;fontColor=#FFFFFF;" edge="1" target="62" source="56" parent="11">
                    <mxGeometry relative="1" as="geometry">
                        <mxPoint x="1280" y="512.67732" as="sourcePoint"/>
                    </mxGeometry>
                </mxCell>
                <mxCell id="62" value="Types" style="whiteSpace=wrap;html=1;rounded=1;fontColor=#FFFFFF;strokeColor=default;fillColor=#B3B3B3;" vertex="1" parent="11">
                    <mxGeometry x="1030" y="509.68332" width="180" height="37.16" as="geometry"/>
                </mxCell>
                <mxCell id="80" style="edgeStyle=none;html=1;exitX=1;exitY=0.5;exitDx=0;exitDy=0;fontSize=12;fontColor=#FFFFFF;entryX=-0.005;entryY=0.367;entryDx=0;entryDy=0;entryPerimeter=0;strokeWidth=3;" edge="1" parent="1" source="62">
                    <mxGeometry relative="1" as="geometry">
                        <mxPoint x="1588.5500000000002" y="578.72" as="targetPoint"/>
                    </mxGeometry>
                </mxCell>
                <mxCell id="98" value="Google-managed &lt;br&gt;service account" style="swimlane;fontStyle=0;childLayout=stackLayout;horizontal=1;startSize=30;horizontalStack=0;resizeParent=1;resizeParentMax=0;resizeLast=0;collapsible=1;marginBottom=0;rounded=0;labelBackgroundColor=#B3B3B3;fontFamily=Helvetica;fontSize=12;fontColor=#FFFFFF;strokeColor=#000000;fillColor=#B3B3B3;gradientColor=none;html=1;" vertex="1" parent="1">
                    <mxGeometry x="1590" y="510.5" width="200" height="130" as="geometry"/>
                </mxCell>
                <mxCell id="99" value="Google stores both the public and &lt;br&gt;private portion of the key" style="text;strokeColor=default;fillColor=none;align=left;verticalAlign=middle;spacingLeft=4;spacingRight=4;overflow=hidden;points=[[0,0.5],[1,0.5]];portConstraint=eastwest;rotatable=0;rounded=0;labelBackgroundColor=none;fontFamily=Helvetica;fontSize=12;fontColor=#000000;html=1;" vertex="1" parent="98">
                    <mxGeometry y="30" width="200" height="60" as="geometry"/>
                </mxCell>
                <mxCell id="100" value="All service accounts have &lt;br&gt;Google-managed keys" style="text;strokeColor=default;fillColor=none;align=left;verticalAlign=middle;spacingLeft=4;spacingRight=4;overflow=hidden;points=[[0,0.5],[1,0.5]];portConstraint=eastwest;rotatable=0;rounded=0;labelBackgroundColor=none;fontFamily=Helvetica;fontSize=12;fontColor=#000000;html=1;" vertex="1" parent="98">
                    <mxGeometry y="90" width="200" height="40" as="geometry"/>
                </mxCell>
                <mxCell id="102" value="User-managed &lt;br&gt;service accounts" style="swimlane;fontStyle=0;childLayout=stackLayout;horizontal=1;startSize=30;horizontalStack=0;resizeParent=1;resizeParentMax=0;resizeLast=0;collapsible=1;marginBottom=0;rounded=0;labelBackgroundColor=#B3B3B3;fontFamily=Helvetica;fontSize=12;fontColor=#FFFFFF;strokeColor=#000000;fillColor=#B3B3B3;gradientColor=none;html=1;" vertex="1" parent="1">
                    <mxGeometry x="1790" y="510.5" width="220" height="130" as="geometry"/>
                </mxCell>
                <mxCell id="103" value="Google only stores the public portion &lt;br&gt;of a user-managed key" style="text;strokeColor=default;fillColor=none;align=left;verticalAlign=middle;spacingLeft=4;spacingRight=4;overflow=hidden;points=[[0,0.5],[1,0.5]];portConstraint=eastwest;rotatable=0;rounded=0;labelBackgroundColor=none;fontFamily=Helvetica;fontSize=12;fontColor=#000000;html=1;" vertex="1" parent="102">
                    <mxGeometry y="30" width="220" height="60" as="geometry"/>
                </mxCell>
                <mxCell id="104" value="Users are reponsible for private key&lt;br&gt;security" style="text;strokeColor=default;fillColor=none;align=left;verticalAlign=middle;spacingLeft=4;spacingRight=4;overflow=hidden;points=[[0,0.5],[1,0.5]];portConstraint=eastwest;rotatable=0;rounded=0;labelBackgroundColor=none;fontFamily=Helvetica;fontSize=12;fontColor=#000000;html=1;" vertex="1" parent="102">
                    <mxGeometry y="90" width="220" height="40" as="geometry"/>
                </mxCell>
            </root>
        </mxGraphModel>
    </diagram>
</mxfile>